<svg width="54" height="56" viewBox="0 0 54 56" fill="none" xmlns="http://www.w3.org/2000/svg">
<rect width="53.3334" height="56" rx="7" fill="white"/>
<path fill-rule="evenodd" clip-rule="evenodd" d="M7.42434 19.1883C8.46185 25.8968 15.3967 35.5566 21.4319 38.7005C27.581 41.9026 29.8416 41.3442 29.8416 36.6198C29.8416 31.975 32.0252 32.1539 37.3864 37.2397C40.1843 39.8948 42.5198 41.1859 44.0869 40.9431C47.7627 40.3768 47.601 38.6196 43.4032 33.4701L39.5646 28.7604L42.8421 23.3328C46.9628 16.5116 46.9867 14.9333 42.968 14.9333C40.2798 14.9333 39.3215 15.8541 36.4477 21.2008C34.5951 24.6478 32.3508 27.4682 31.4598 27.4682C30.2215 27.4682 29.8416 25.9959 29.8416 21.2008V14.9333H25.3845C21.5317 14.9333 21.0455 15.2034 21.7966 16.9275C22.2752 18.0237 22.693 21.2292 22.7266 24.0496C22.8145 31.4394 20.3966 30.6828 16.3561 22.0554C13.415 15.7777 12.6488 14.9333 9.89332 14.9333C6.8893 14.9333 6.79271 15.0997 7.42434 19.1883Z" fill="#3D332C"/>
</svg>
